<svg id="visual" viewBox="0 0 960 540" width="960" height="540" xmlns="http://www.w3.org/2000/svg" xmlns:xlink="http://www.w3.org/1999/xlink" version="1.1"><rect x="0" y="0" width="960" height="540" fill="#001220"></rect><defs><linearGradient id="grad1_0" x1="43.8%" y1="0%" x2="100%" y2="100%"><stop offset="14.444444444444446%" stop-color="#3deaff" stop-opacity="1"></stop><stop offset="85.55555555555554%" stop-color="#3deaff" stop-opacity="1"></stop></linearGradient></defs><defs><linearGradient id="grad1_1" x1="43.8%" y1="0%" x2="100%" y2="100%"><stop offset="14.444444444444446%" stop-color="#3deaff" stop-opacity="1"></stop><stop offset="85.55555555555554%" stop-color="#2cb9d4" stop-opacity="1"></stop></linearGradient></defs><defs><linearGradient id="grad1_2" x1="43.8%" y1="0%" x2="100%" y2="100%"><stop offset="14.444444444444446%" stop-color="#238aa7" stop-opacity="1"></stop><stop offset="85.55555555555554%" stop-color="#2cb9d4" stop-opacity="1"></stop></linearGradient></defs><defs><linearGradient id="grad1_3" x1="43.8%" y1="0%" x2="100%" y2="100%"><stop offset="14.444444444444446%" stop-color="#238aa7" stop-opacity="1"></stop><stop offset="85.55555555555554%" stop-color="#1b5e79" stop-opacity="1"></stop></linearGradient></defs><defs><linearGradient id="grad1_4" x1="43.8%" y1="0%" x2="100%" y2="100%"><stop offset="14.444444444444446%" stop-color="#10364b" stop-opacity="1"></stop><stop offset="85.55555555555554%" stop-color="#1b5e79" stop-opacity="1"></stop></linearGradient></defs><defs><linearGradient id="grad1_5" x1="43.8%" y1="0%" x2="100%" y2="100%"><stop offset="14.444444444444446%" stop-color="#10364b" stop-opacity="1"></stop><stop offset="85.55555555555554%" stop-color="#001220" stop-opacity="1"></stop></linearGradient></defs><defs><linearGradient id="grad2_0" x1="0%" y1="0%" x2="56.3%" y2="100%"><stop offset="14.444444444444446%" stop-color="#3deaff" stop-opacity="1"></stop><stop offset="85.55555555555554%" stop-color="#3deaff" stop-opacity="1"></stop></linearGradient></defs><defs><linearGradient id="grad2_1" x1="0%" y1="0%" x2="56.3%" y2="100%"><stop offset="14.444444444444446%" stop-color="#2cb9d4" stop-opacity="1"></stop><stop offset="85.55555555555554%" stop-color="#3deaff" stop-opacity="1"></stop></linearGradient></defs><defs><linearGradient id="grad2_2" x1="0%" y1="0%" x2="56.3%" y2="100%"><stop offset="14.444444444444446%" stop-color="#2cb9d4" stop-opacity="1"></stop><stop offset="85.55555555555554%" stop-color="#238aa7" stop-opacity="1"></stop></linearGradient></defs><defs><linearGradient id="grad2_3" x1="0%" y1="0%" x2="56.3%" y2="100%"><stop offset="14.444444444444446%" stop-color="#1b5e79" stop-opacity="1"></stop><stop offset="85.55555555555554%" stop-color="#238aa7" stop-opacity="1"></stop></linearGradient></defs><defs><linearGradient id="grad2_4" x1="0%" y1="0%" x2="56.3%" y2="100%"><stop offset="14.444444444444446%" stop-color="#1b5e79" stop-opacity="1"></stop><stop offset="85.55555555555554%" stop-color="#10364b" stop-opacity="1"></stop></linearGradient></defs><defs><linearGradient id="grad2_5" x1="0%" y1="0%" x2="56.3%" y2="100%"><stop offset="14.444444444444446%" stop-color="#001220" stop-opacity="1"></stop><stop offset="85.55555555555554%" stop-color="#10364b" stop-opacity="1"></stop></linearGradient></defs><g transform="translate(960, 0)"><path d="M0 378C-41.3 359.9 -82.7 341.8 -136.2 328.9C-189.8 316 -255.7 308.3 -267.3 267.3C-278.9 226.3 -236.3 151.9 -245.8 101.8C-255.2 51.7 -316.6 25.8 -378 0L0 0Z" fill="#092435"></path><path d="M0 315C-34.4 299.9 -68.9 284.8 -113.5 274.1C-158.2 263.3 -213 256.9 -222.7 222.7C-232.4 188.5 -196.9 126.6 -204.8 84.8C-212.6 43.1 -263.8 21.5 -315 0L0 0Z" fill="#164962"></path><path d="M0 252C-27.6 239.9 -55.1 227.9 -90.8 219.3C-126.5 210.7 -170.4 205.5 -178.2 178.2C-185.9 150.8 -157.6 101.3 -163.8 67.9C-170.1 34.5 -211.1 17.2 -252 0L0 0Z" fill="#1f7390"></path><path d="M0 189C-20.7 179.9 -41.3 170.9 -68.1 164.5C-94.9 158 -127.8 154.2 -133.6 133.6C-139.5 113.1 -118.2 75.9 -122.9 50.9C-127.6 25.8 -158.3 12.9 -189 0L0 0Z" fill="#27a1be"></path><path d="M0 126C-13.8 120 -27.6 113.9 -45.4 109.6C-63.3 105.3 -85.2 102.8 -89.1 89.1C-93 75.4 -78.8 50.6 -81.9 33.9C-85.1 17.2 -105.5 8.6 -126 0L0 0Z" fill="#33d1ea"></path><path d="M0 63C-6.9 60 -13.8 57 -22.7 54.8C-31.6 52.7 -42.6 51.4 -44.5 44.5C-46.5 37.7 -39.4 25.3 -41 17C-42.5 8.6 -52.8 4.3 -63 0L0 0Z" fill="#3deaff"></path></g><g transform="translate(0, 540)"><path d="M0 -378C43.5 -362.4 86.9 -346.9 137.8 -332.6C188.6 -318.3 246.8 -305.4 267.3 -267.3C287.8 -229.2 270.5 -165.8 282.7 -117.1C294.9 -68.4 336.4 -34.2 378 0L0 0Z" fill="#092435"></path><path d="M0 -315C36.2 -302 72.4 -289 114.8 -277.2C157.2 -265.3 205.7 -254.5 222.7 -222.7C239.8 -191 225.5 -138.2 235.6 -97.6C245.7 -57 280.4 -28.5 315 0L0 0Z" fill="#164962"></path><path d="M0 -252C29 -241.6 58 -231.2 91.8 -221.7C125.7 -212.2 164.5 -203.6 178.2 -178.2C191.8 -152.8 180.4 -110.6 188.5 -78.1C196.6 -45.6 224.3 -22.8 252 0L0 0Z" fill="#1f7390"></path><path d="M0 -189C21.7 -181.2 43.5 -173.4 68.9 -166.3C94.3 -159.2 123.4 -152.7 133.6 -133.6C143.9 -114.6 135.3 -82.9 141.4 -58.6C147.4 -34.2 168.2 -17.1 189 0L0 0Z" fill="#27a1be"></path><path d="M0 -126C14.5 -120.8 29 -115.6 45.9 -110.9C62.9 -106.1 82.3 -101.8 89.1 -89.1C95.9 -76.4 90.2 -55.3 94.2 -39C98.3 -22.8 112.1 -11.4 126 0L0 0Z" fill="#33d1ea"></path><path d="M0 -63C7.2 -60.4 14.5 -57.8 23 -55.4C31.4 -53.1 41.1 -50.9 44.5 -44.5C48 -38.2 45.1 -27.6 47.1 -19.5C49.1 -11.4 56.1 -5.7 63 0L0 0Z" fill="#3deaff"></path></g></svg>