<svg id="visual" viewBox="0 0 960 540" width="960" height="540" xmlns="http://www.w3.org/2000/svg" xmlns:xlink="http://www.w3.org/1999/xlink" version="1.1"><rect x="0" y="0" width="960" height="540" fill="#001220"></rect><defs><linearGradient id="grad1_0" x1="43.8%" y1="0%" x2="100%" y2="100%"><stop offset="14.444444444444446%" stop-color="#3deaff" stop-opacity="1"></stop><stop offset="85.55555555555554%" stop-color="#3deaff" stop-opacity="1"></stop></linearGradient></defs><defs><linearGradient id="grad1_1" x1="43.8%" y1="0%" x2="100%" y2="100%"><stop offset="14.444444444444446%" stop-color="#3deaff" stop-opacity="1"></stop><stop offset="85.55555555555554%" stop-color="#2cb9d4" stop-opacity="1"></stop></linearGradient></defs><defs><linearGradient id="grad1_2" x1="43.8%" y1="0%" x2="100%" y2="100%"><stop offset="14.444444444444446%" stop-color="#238aa7" stop-opacity="1"></stop><stop offset="85.55555555555554%" stop-color="#2cb9d4" stop-opacity="1"></stop></linearGradient></defs><defs><linearGradient id="grad1_3" x1="43.8%" y1="0%" x2="100%" y2="100%"><stop offset="14.444444444444446%" stop-color="#238aa7" stop-opacity="1"></stop><stop offset="85.55555555555554%" stop-color="#1b5e79" stop-opacity="1"></stop></linearGradient></defs><defs><linearGradient id="grad1_4" x1="43.8%" y1="0%" x2="100%" y2="100%"><stop offset="14.444444444444446%" stop-color="#10364b" stop-opacity="1"></stop><stop offset="85.55555555555554%" stop-color="#1b5e79" stop-opacity="1"></stop></linearGradient></defs><defs><linearGradient id="grad1_5" x1="43.8%" y1="0%" x2="100%" y2="100%"><stop offset="14.444444444444446%" stop-color="#10364b" stop-opacity="1"></stop><stop offset="85.55555555555554%" stop-color="#001220" stop-opacity="1"></stop></linearGradient></defs><defs><linearGradient id="grad2_0" x1="0%" y1="0%" x2="56.3%" y2="100%"><stop offset="14.444444444444446%" stop-color="#3deaff" stop-opacity="1"></stop><stop offset="85.55555555555554%" stop-color="#3deaff" stop-opacity="1"></stop></linearGradient></defs><defs><linearGradient id="grad2_1" x1="0%" y1="0%" x2="56.3%" y2="100%"><stop offset="14.444444444444446%" stop-color="#2cb9d4" stop-opacity="1"></stop><stop offset="85.55555555555554%" stop-color="#3deaff" stop-opacity="1"></stop></linearGradient></defs><defs><linearGradient id="grad2_2" x1="0%" y1="0%" x2="56.3%" y2="100%"><stop offset="14.444444444444446%" stop-color="#2cb9d4" stop-opacity="1"></stop><stop offset="85.55555555555554%" stop-color="#238aa7" stop-opacity="1"></stop></linearGradient></defs><defs><linearGradient id="grad2_3" x1="0%" y1="0%" x2="56.3%" y2="100%"><stop offset="14.444444444444446%" stop-color="#1b5e79" stop-opacity="1"></stop><stop offset="85.55555555555554%" stop-color="#238aa7" stop-opacity="1"></stop></linearGradient></defs><defs><linearGradient id="grad2_4" x1="0%" y1="0%" x2="56.3%" y2="100%"><stop offset="14.444444444444446%" stop-color="#1b5e79" stop-opacity="1"></stop><stop offset="85.55555555555554%" stop-color="#10364b" stop-opacity="1"></stop></linearGradient></defs><defs><linearGradient id="grad2_5" x1="0%" y1="0%" x2="56.3%" y2="100%"><stop offset="14.444444444444446%" stop-color="#001220" stop-opacity="1"></stop><stop offset="85.55555555555554%" stop-color="#10364b" stop-opacity="1"></stop></linearGradient></defs><g transform="translate(960, 0)"><path d="M0 378C-59 382.6 -118 387.1 -144.7 349.2C-171.3 311.3 -165.7 230.9 -191.6 191.6C-217.5 152.3 -275 154.1 -311.3 129C-347.7 103.9 -362.8 51.9 -378 0L0 0Z" fill="#092435"></path><path d="M0 315C-49.2 318.8 -98.3 322.6 -120.5 291C-142.8 259.4 -138.1 192.5 -159.7 159.7C-181.3 126.9 -229.2 128.4 -259.5 107.5C-289.7 86.6 -302.4 43.3 -315 0L0 0Z" fill="#164962"></path><path d="M0 252C-39.3 255 -78.7 258.1 -96.4 232.8C-114.2 207.5 -110.5 154 -127.8 127.8C-145 101.5 -183.4 102.7 -207.6 86C-231.8 69.2 -241.9 34.6 -252 0L0 0Z" fill="#1f7390"></path><path d="M0 189C-29.5 191.3 -59 193.6 -72.3 174.6C-85.7 155.7 -82.9 115.5 -95.8 95.8C-108.8 76.2 -137.5 77 -155.7 64.5C-173.8 51.9 -181.4 26 -189 0L0 0Z" fill="#27a1be"></path><path d="M0 126C-19.7 127.5 -39.3 129 -48.2 116.4C-57.1 103.8 -55.2 77 -63.9 63.9C-72.5 50.8 -91.7 51.4 -103.8 43C-115.9 34.6 -120.9 17.3 -126 0L0 0Z" fill="#33d1ea"></path><path d="M0 63C-9.8 63.8 -19.7 64.5 -24.1 58.2C-28.6 51.9 -27.6 38.5 -31.9 31.9C-36.3 25.4 -45.8 25.7 -51.9 21.5C-57.9 17.3 -60.5 8.7 -63 0L0 0Z" fill="#3deaff"></path></g><g transform="translate(0, 540)"><path d="M0 -378C57.1 -380.9 114.2 -383.8 144.7 -349.2C175.1 -314.7 178.8 -242.6 202.2 -202.2C225.6 -161.9 268.6 -153.2 301.2 -124.8C333.7 -96.3 355.9 -48.2 378 0L0 0Z" fill="#092435"></path><path d="M0 -315C47.6 -317.4 95.2 -319.8 120.5 -291C145.9 -262.2 149 -202.2 168.5 -168.5C188 -134.9 223.8 -127.6 251 -104C278.1 -80.3 296.6 -40.1 315 0L0 0Z" fill="#164962"></path><path d="M0 -252C38.1 -253.9 76.1 -255.9 96.4 -232.8C116.7 -209.8 119.2 -161.7 134.8 -134.8C150.4 -107.9 179.1 -102.1 200.8 -83.2C222.5 -64.2 237.2 -32.1 252 0L0 0Z" fill="#1f7390"></path><path d="M0 -189C28.6 -190.5 57.1 -191.9 72.3 -174.6C87.5 -157.3 89.4 -121.3 101.1 -101.1C112.8 -80.9 134.3 -76.6 150.6 -62.4C166.9 -48.2 177.9 -24.1 189 0L0 0Z" fill="#27a1be"></path><path d="M0 -126C19 -127 38.1 -127.9 48.2 -116.4C58.4 -104.9 59.6 -80.9 67.4 -67.4C75.2 -54 89.5 -51.1 100.4 -41.6C111.2 -32.1 118.6 -16.1 126 0L0 0Z" fill="#33d1ea"></path><path d="M0 -63C9.5 -63.5 19 -64 24.1 -58.2C29.2 -52.4 29.8 -40.4 33.7 -33.7C37.6 -27 44.8 -25.5 50.2 -20.8C55.6 -16.1 59.3 -8 63 0L0 0Z" fill="#3deaff"></path></g></svg>